<?xml version="1.0" encoding="UTF-8"?>
<!DOCTYPE svg PUBLIC "-//W3C//DTD SVG 1.1//EN" "http://www.w3.org/Graphics/SVG/1.1/DTD/svg11.dtd">
<!-- Creator: CorelDRAW 2020 (64-Bit) -->
<svg xmlns="http://www.w3.org/2000/svg" xml:space="preserve" width="38.126mm" height="7.766mm" version="1.1" style="shape-rendering:geometricPrecision; text-rendering:geometricPrecision; image-rendering:optimizeQuality; fill-rule:evenodd; clip-rule:evenodd"
viewBox="0 0 3812.6 776.6"
 xmlns:xlink="http://www.w3.org/1999/xlink"
 xmlns:xodm="http://www.corel.com/coreldraw/odm/2003">
 <defs>
  <style type="text/css">
   <![CDATA[
    .fil2 {fill:black;fill-rule:nonzero}
    .fil1 {fill:#3DD9EB;fill-rule:nonzero}
    .fil0 {fill:#615DFF;fill-rule:nonzero}
   ]]>
  </style>
 </defs>
 <g id="Layer_x0020_1">
  <metadata id="CorelCorpID_0Corel-Layer"/>
  <g id="_2030394603376">
   <path class="fil0" d="M691.89 726.99c73.07,0 133.55,-59.73 120.03,-131.53 -8.48,-45.02 -21.31,-89.15 -38.36,-131.73 -33.42,-83.45 -82.41,-159.28 -144.17,-223.16 -61.76,-63.88 -135.07,-114.55 -215.76,-149.12 -39.84,-17.07 -81.09,-30.05 -123.15,-38.82 -71.53,-14.9 -131.37,45.68 -131.37,118.74l0 423.33c0,73.06 59.23,132.29 132.3,132.29l400.48 0z"/>
   <g>
    <path class="fil1" d="M521.62 726.99c-73.05,0 -133.54,-59.73 -120.01,-131.53 8.47,-45.02 21.3,-89.15 38.35,-131.73 33.43,-83.45 82.4,-159.28 144.16,-223.16 61.76,-63.88 135.08,-114.55 215.77,-149.12 39.84,-17.07 81.09,-30.05 123.15,-38.82 71.53,-14.9 131.37,45.68 131.37,118.74l0 423.33c0,73.06 -59.23,132.29 -132.29,132.29l-400.5 0z"/>
   </g>
   <path class="fil2" d="M1287.01 584.94c-27.68,0 -52.62,-4.74 -74.8,-14.22 -22.19,-9.48 -39.73,-23.13 -52.62,-40.96 -12.89,-17.82 -19.53,-38.87 -19.91,-63.14l85.33 0c1.13,16.31 6.92,29.2 17.35,38.68 10.43,9.48 24.74,14.23 42.94,14.23 18.59,0 33.19,-4.46 43.8,-13.37 10.62,-8.91 15.93,-20.58 15.93,-34.99 0,-11.75 -3.6,-21.42 -10.81,-29.01 -7.2,-7.58 -16.21,-13.55 -27.02,-17.92 -10.8,-4.36 -25.69,-9.19 -44.65,-14.5 -25.79,-7.59 -46.74,-15.08 -62.86,-22.47 -16.11,-7.39 -29.96,-18.58 -41.52,-33.56 -11.57,-14.98 -17.35,-34.99 -17.35,-60.01 0,-23.52 5.88,-43.99 17.63,-61.44 11.76,-17.44 28.25,-30.81 49.49,-40.1 21.24,-9.29 45.51,-13.94 72.81,-13.94 40.96,0 74.24,9.96 99.83,29.87 25.6,19.9 39.73,47.68 42.38,83.33l-87.6 0c-0.76,-13.65 -6.54,-24.93 -17.35,-33.85 -10.81,-8.91 -25.12,-13.36 -42.95,-13.36 -15.54,0 -27.96,3.98 -37.25,11.94 -9.3,7.97 -13.94,19.53 -13.94,34.7 0,10.62 3.51,19.44 10.52,26.45 7.02,7.02 15.74,12.71 26.17,17.07 10.43,4.36 25.12,9.38 44.08,15.07 25.79,7.59 46.84,15.17 63.15,22.76 16.3,7.58 30.33,18.96 42.09,34.13 11.76,15.17 17.63,35.07 17.63,59.72 0,21.24 -5.49,40.96 -16.49,59.16 -11,18.21 -27.12,32.71 -48.35,43.52 -21.24,10.81 -46.46,16.21 -75.66,16.21z"/>
   <path id="1" class="fil2" d="M1785.88 306.78c0,21.24 -5.03,41.15 -15.07,59.73 -10.05,18.58 -25.79,33.56 -47.22,44.94 -21.42,11.37 -48.44,17.06 -81.06,17.06l-66.55 0 0 152.45 -79.64 0 0 -397.05 146.19 0c30.72,0 56.89,5.31 78.5,15.93 21.62,10.62 37.83,25.22 48.64,43.8 10.81,18.58 16.21,39.63 16.21,63.14zm-146.76 57.45c21.99,0 38.3,-5.02 48.92,-15.07 10.62,-10.05 15.93,-24.18 15.93,-42.38 0,-38.68 -21.62,-58.02 -64.85,-58.02l-63.14 0 0 115.47 63.14 0z"/>
   <polygon id="2" class="fil2" points="2066.31,580.96 1921.83,404.05 1921.83,580.96 1842.19,580.96 1842.19,183.91 1921.83,183.91 1921.83,361.96 2066.31,183.91 2162.45,183.91 1998.62,380.73 2167,580.96 "/>
   <path id="3" class="fil2" d="M2491.8 584.94c-27.68,0 -52.62,-4.74 -74.8,-14.22 -22.19,-9.48 -39.73,-23.13 -52.62,-40.96 -12.89,-17.82 -19.53,-38.87 -19.91,-63.14l85.33 0c1.13,16.31 6.92,29.2 17.35,38.68 10.43,9.48 24.74,14.23 42.94,14.23 18.59,0 33.19,-4.46 43.8,-13.37 10.62,-8.91 15.93,-20.58 15.93,-34.99 0,-11.75 -3.6,-21.42 -10.81,-29.01 -7.2,-7.58 -16.21,-13.55 -27.02,-17.92 -10.8,-4.36 -25.69,-9.19 -44.65,-14.5 -25.79,-7.59 -46.74,-15.08 -62.86,-22.47 -16.11,-7.39 -29.96,-18.58 -41.52,-33.56 -11.57,-14.98 -17.35,-34.99 -17.35,-60.01 0,-23.52 5.88,-43.99 17.63,-61.44 11.76,-17.44 28.25,-30.81 49.49,-40.1 21.24,-9.29 45.51,-13.94 72.81,-13.94 40.96,0 74.24,9.96 99.83,29.87 25.6,19.9 39.73,47.68 42.38,83.33l-87.6 0c-0.76,-13.65 -6.54,-24.93 -17.35,-33.85 -10.81,-8.91 -25.12,-13.36 -42.95,-13.36 -15.54,0 -27.96,3.98 -37.25,11.94 -9.3,7.97 -13.94,19.53 -13.94,34.7 0,10.62 3.51,19.44 10.52,26.45 7.02,7.02 15.74,12.71 26.17,17.07 10.43,4.36 25.12,9.38 44.08,15.07 25.79,7.59 46.84,15.17 63.15,22.76 16.3,7.58 30.33,18.96 42.09,34.13 11.76,15.17 17.63,35.07 17.63,59.72 0,21.24 -5.49,40.96 -16.49,59.16 -11,18.21 -27.12,32.71 -48.35,43.52 -21.24,10.81 -46.46,16.21 -75.66,16.21z"/>
   <path id="4" class="fil2" d="M2944.59 505.3l-158.13 0 -26.17 75.66 -83.62 0 142.78 -397.62 92.72 0 142.78 397.62 -84.19 0 -26.17 -75.66zm-21.61 -63.71l-57.46 -166.1 -57.45 166.1 114.91 0z"/>
   <polygon id="5" class="fil2" points="3639.15,183.91 3528.22,580.96 3434.37,580.96 3359.85,298.25 3281.92,580.96 3188.63,581.53 3081.68,183.91 3167.01,183.91 3236.98,492.22 3317.75,183.91 3406.49,183.91 3482.72,490.51 3553.25,183.91 "/>
  </g>
 </g>
</svg>
